# xmcd
#
# Track frame offsets: 
#        150
#        19772
#        39497
#        59820
#        81090
#        102235
#        122177
#        143442
#        165392
#        186847
#
# Disc length: 2775 seconds
#
# Revision: 2
# Processed by: cddbd v1.5.2PL0 Copyright (c) Steve Scherf et al.
# Submitted via: ExactAudioCopy v0.99pb4
#
DISCID=800ad50a
DTITLE=Denny Jiosa - body2body
DYEAR=2002
DGENRE=Smooth Jazz
TTITLE0=Body2body
TTITLE1=Cool Shoes
TTITLE2=il dolce per due (dessert for two)
TTITLE3=europa
TTITLE4=dreaming in blue
TTITLE5=peace in manhattan
TTITLE6=you're like chocolate to me
TTITLE7=into the storm
TTITLE8=them changes
TTITLE9=europa (remix)
EXTD=YEAR: 2002
EXTT0=
EXTT1=
EXTT2=
EXTT3=
EXTT4=
EXTT5=
EXTT6=
EXTT7=
EXTT8=
EXTT9=
PLAYORDER=
